# Exported from Wings 3D 1.5.3
mtllib ./pneu.mtl
o roue_libre
#24 vertices, 44 faces
v -0.29840211 -5.5234086e-4 0.39567341
v -0.29840211 -0.28056663 0.27968770
v -0.29840211 -0.39655234 -3.2658625e-4
v -0.29840211 -0.28056663 -0.28034087
v -0.29840211 -5.5234086e-4 -0.39632659
v -0.29840211 0.27946194 -0.28034087
v -0.29840211 0.39544766 -3.2658625e-4
v -0.29840211 0.27946194 0.27968770
v 0.29759789 -5.5234086e-4 0.39567341
v 0.29759789 -0.28056663 0.27968770
v 0.29759789 -0.39655234 -3.2658625e-4
v 0.29759789 -0.28056663 -0.28034087
v 0.29759789 -5.5234086e-4 -0.39632659
v 0.29759789 0.27946194 -0.28034087
v 0.29759789 0.39544766 -3.2658625e-4
v 0.29759789 0.27946194 0.27968770
v -4.0210829e-4 0.35570973 0.35593549
v -4.0210829e-4 0.50327832 -3.2658625e-4
v -4.0210829e-4 0.35570973 -0.35658866
v -4.0210829e-4 -5.5234086e-4 -0.50415724
v -4.0210829e-4 -0.35681442 -0.35658866
v -4.0210829e-4 -0.50438300 -3.2658625e-4
v -4.0210829e-4 -0.35681442 0.35593549
v -4.0210829e-4 -5.5234086e-4 0.50350407
vt 1.3671462e-2 0.81126641
vt 1.3671462e-2 0.89924444
vt 1.3671462e-2 0.98722248
vt 0.10315082 0.81126641
vt 0.10315082 0.89924444
vt 0.10315082 0.98722248
vt 0.19263018 0.98722248
vt 0.19263018 0.89924444
vt 0.19263018 0.81126641
vt 0.28210953 0.81126641
vt 0.28210953 0.89924444
vt 0.28210953 0.98722248
vt 0.37158889 0.81126641
vt 0.37158889 0.89924444
vt 0.37158889 0.98722248
vt 0.46106825 0.81126641
vt 0.46106825 0.89924444
vt 0.46106825 0.98722248
vt 0.55054760 0.81126641
vt 0.55054760 0.89924444
vt 0.55054760 0.98722248
vt 0.64002696 0.81126641
vt 0.64002696 0.89924444
vt 0.64002696 0.98722248
vt 0.72950632 0.81126641
vt 0.72950632 0.89924444
vt 0.72950632 0.98722248
vt 0.75691181 0.85446667
vt 0.75691181 0.85446667
vt 0.79115408 0.77179852
vt 0.79115408 0.93713481
vt 0.79115408 0.77179852
vt 0.79115408 0.93713481
vt 0.87382222 0.73755625
vt 0.87382222 0.97137708
vt 0.87382222 0.73755625
vt 0.87382222 0.97137708
vt 0.95649037 0.77179852
vt 0.95649037 0.77179852
vt 0.95649037 0.93713481
vt 0.95649037 0.93713481
vt 0.99073264 0.85446667
vt 0.99073264 0.85446667
vn 1.5838361e-16 0.70710678 0.70710678
vn -7.9191804e-18 1.00000000 -7.9191804e-17
vn -6.3353443e-17 0.70710678 -0.70710678
vn -1.0294935e-16 -1.5838361e-16 -1.00000000
vn -6.3353443e-17 -0.70710678 -0.70710678
vn -2.3757541e-17 -1.00000000 1.6630279e-16
vn -6.3353443e-17 -0.70710678 0.70710678
vn 4.7515082e-17 7.1272624e-17 1.00000000
vn -1.00000000 -2.1365131e-16 2.3930167e-16
vn -0.34025725 5.9573295e-17 0.94033239
vn -0.34025725 5.9573295e-17 0.94033239
vn -1.00000000 -1.9532292e-16 1.4017967e-16
vn -0.34025725 -0.66491541 0.66491541
vn -0.34025725 -0.66491541 0.66491541
vn -1.00000000 -1.9532292e-16 1.4017967e-16
vn -0.34025725 -0.66491541 0.66491541
vn -0.34025725 -0.66491541 0.66491541
vn -1.00000000 1.0787387e-16 -1.9257512e-16
vn -1.00000000 1.0787387e-16 -1.9257512e-16
vn -1.00000000 1.0787387e-16 -1.9257512e-16
vn -0.34025725 -0.94033239 1.4893324e-16
vn -0.34025725 -0.94033239 1.4893324e-16
vn -0.34025725 -0.66491541 -0.66491541
vn -0.34025725 -0.66491541 -0.66491541
vn -1.00000000 -1.7280167e-17 3.8681061e-16
vn -1.00000000 -1.7280167e-17 3.8681061e-16
vn -1.00000000 -1.7280167e-17 3.8681061e-16
vn -0.34025725 -0.66491541 -0.66491541
vn -0.34025725 -0.66491541 -0.66491541
vn -1.00000000 0.0000000e+0 2.3930167e-16
vn -0.34025725 -3.2765312e-16 -0.94033239
vn -0.34025725 -3.2765312e-16 -0.94033239
vn -0.34025725 0.66491541 -0.66491541
vn -0.34025725 0.66491541 -0.66491541
vn -1.00000000 -8.8497269e-17 5.3666767e-16
vn -1.00000000 -8.8497269e-17 5.3666767e-16
vn -0.34025725 0.66491541 -0.66491541
vn -0.34025725 0.66491541 -0.66491541
vn -1.00000000 1.0787387e-16 7.1750215e-17
vn -1.00000000 1.0787387e-16 7.1750215e-17
vn -1.00000000 1.0787387e-16 7.1750215e-17
vn -0.34025725 0.94033239 -4.1701306e-16
vn -0.34025725 0.94033239 -4.1701306e-16
vn -1.00000000 -5.0612437e-18 -1.4184005e-16
vn -0.34025725 0.66491541 0.66491541
vn -0.34025725 0.66491541 0.66491541
vn -1.00000000 -5.0612437e-18 -1.4184005e-16
vn -1.00000000 -5.0612437e-18 -1.4184005e-16
vn -0.34025725 0.66491541 0.66491541
vn -0.34025725 0.66491541 0.66491541
vn 1.00000000 2.1365131e-16 -2.3930167e-16
vn 0.34025725 2.3829318e-16 0.94033239
vn 0.34025725 2.3829318e-16 0.94033239
vn 0.34025725 -0.66491541 0.66491541
vn 0.34025725 -0.66491541 0.66491541
vn 1.00000000 2.9499090e-17 -3.0137450e-16
vn 1.00000000 2.9499090e-17 -3.0137450e-16
vn 1.00000000 2.9499090e-17 -3.0137450e-16
vn 0.34025725 -0.66491541 0.66491541
vn 0.34025725 -0.66491541 0.66491541
vn 1.00000000 -6.6155859e-17 7.1750215e-17
vn 1.00000000 -6.6155859e-17 7.1750215e-17
vn 1.00000000 -6.6155859e-17 7.1750215e-17
vn 0.34025725 -0.94033239 1.4893324e-16
vn 0.34025725 -0.94033239 1.4893324e-16
vn 1.00000000 8.8497269e-17 2.9736600e-16
vn 0.34025725 -0.66491541 -0.66491541
vn 0.34025725 -0.66491541 -0.66491541
vn 1.00000000 8.8497269e-17 2.9736600e-16
vn 0.34025725 -0.66491541 -0.66491541
vn 0.34025725 -0.66491541 -0.66491541
vn 1.00000000 0.0000000e+0 -2.3930167e-16
vn 0.34025725 5.9573295e-17 -0.94033239
vn 0.34025725 5.9573295e-17 -0.94033239
vn 1.00000000 -2.4437846e-17 2.2727616e-16
vn 0.34025725 0.66491541 -0.66491541
vn 0.34025725 0.66491541 -0.66491541
vn 1.00000000 -2.4437846e-17 2.2727616e-16
vn 1.00000000 -2.4437846e-17 2.2727616e-16
vn 0.34025725 0.66491541 -0.66491541
vn 0.34025725 0.66491541 -0.66491541
vn 1.00000000 -1.2515404e-16 -1.9257512e-16
vn 1.00000000 -1.2515404e-16 -1.9257512e-16
vn 1.00000000 -1.2515404e-16 -1.9257512e-16
vn 0.34025725 0.94033239 -1.1914659e-16
vn 0.34025725 0.94033239 -1.1914659e-16
vn 0.34025725 0.66491541 0.66491541
vn 0.34025725 0.66491541 0.66491541
vn 1.00000000 1.0682565e-16 -9.9121999e-17
vn 1.00000000 1.0682565e-16 -9.9121999e-17
vn 0.34025725 0.66491541 0.66491541
vn 0.34025725 0.66491541 0.66491541
g roue_libre_caisse_auv
usemtl caisse_auv
s 1
f 1/43/9 8/41/44 2/39/12
f 2/39/15 8/41/48 3/36/19
f 3/36/20 7/37/41 4/32/26
f 4/32/27 6/33/36 5/29/30
f 6/33/35 4/32/25 7/37/40
f 7/37/39 3/36/18 8/41/47
f 10/30/58 16/31/90 9/28/51
f 11/34/61 15/35/82 10/30/56
f 12/38/69 14/40/78 11/34/62
f 13/42/72 14/40/75 12/38/66
f 15/35/84 11/34/63 14/40/79
f 16/31/89 10/30/57 15/35/83
s 2
f 1/7/10 24/8/8 8/12/49
f 2/6/13 22/2/6 23/5/7
f 2/6/17 24/8/8 1/7/11
f 3/3/22 22/2/6 2/6/16
f 4/24/23 20/20/4 21/23/5
f 4/24/28 22/26/6 3/27/21
f 5/21/32 20/20/4 4/24/29
f 6/18/33 18/14/2 19/17/3
f 6/18/37 20/20/4 5/21/31
f 7/15/42 18/14/2 6/18/38
f 8/12/50 18/14/2 7/15/43
f 8/12/45 24/8/8 17/11/1
f 9/9/53 24/8/8 10/4/60
f 10/4/59 22/2/6 11/1/65
f 10/4/55 24/8/8 23/5/7
f 11/25/64 22/26/6 12/22/71
f 12/22/70 20/20/4 13/19/74
f 12/22/68 22/26/6 21/23/5
f 13/19/73 20/20/4 14/16/81
f 14/16/80 18/14/2 15/13/86
f 14/16/77 20/20/4 19/17/3
f 15/13/85 18/14/2 16/10/92
f 16/10/88 18/14/2 17/11/1
f 16/10/91 24/8/8 9/9/52
f 17/11/1 18/14/2 8/12/46
f 17/11/1 24/8/8 16/10/87
f 19/17/3 18/14/2 14/16/76
f 19/17/3 20/20/4 6/18/34
f 21/23/5 20/20/4 12/22/67
f 21/23/5 22/26/6 4/24/24
f 23/5/7 22/2/6 10/4/54
f 23/5/7 24/8/8 2/6/14
