# Exported from Wings 3D 1.5.3
mtllib ./pneu_g.mtl
o roue_av_g
#24 vertices, 44 faces
v 0.87777778 0.37511111 -0.42200000
v 0.76179206 9.5096826e-2 -0.42200000
v 0.48177778 -2.0888889e-2 -0.42200000
v 0.20176349 9.5096826e-2 -0.42200000
v 8.5777778e-2 0.37511111 -0.42200000
v 0.20176349 0.65512540 -0.42200000
v 0.48177778 0.77111111 -0.42200000
v 0.76179206 0.65512540 -0.42200000
v 0.87777778 0.37511111 -1.01800000
v 0.76179206 9.5096826e-2 -1.01800000
v 0.48177778 -2.0888889e-2 -1.01800000
v 0.20176349 9.5096826e-2 -1.01800000
v 8.5777778e-2 0.37511111 -1.01800000
v 0.20176349 0.65512540 -1.01800000
v 0.48177778 0.77111111 -1.01800000
v 0.76179206 0.65512540 -1.01800000
v 0.83803985 0.73137319 -0.72000000
v 0.48177778 0.87894177 -0.72000000
v 0.12551570 0.73137319 -0.72000000
v -2.2052880e-2 0.37511111 -0.72000000
v 0.12551570 1.8849037e-2 -0.72000000
v 0.48177778 -0.12871955 -0.72000000
v 0.83803985 1.8849037e-2 -0.72000000
v 0.98560844 0.37511111 -0.72000000
vt 1.3671462e-2 0.81126641
vt 1.3671462e-2 0.89924444
vt 1.3671462e-2 0.98722248
vt 0.10315082 0.81126641
vt 0.10315082 0.89924444
vt 0.10315082 0.98722248
vt 0.19263018 0.98722248
vt 0.19263018 0.89924444
vt 0.19263018 0.81126641
vt 0.28210953 0.81126641
vt 0.28210953 0.89924444
vt 0.28210953 0.98722248
vt 0.37158889 0.81126641
vt 0.37158889 0.89924444
vt 0.37158889 0.98722248
vt 0.46106825 0.81126641
vt 0.46106825 0.89924444
vt 0.46106825 0.98722248
vt 0.55054760 0.81126641
vt 0.55054760 0.89924444
vt 0.55054760 0.98722248
vt 0.64002696 0.81126641
vt 0.64002696 0.89924444
vt 0.64002696 0.98722248
vt 0.72950632 0.81126641
vt 0.72950632 0.89924444
vt 0.72950632 0.98722248
vt 0.75691181 0.85446667
vt 0.75691181 0.85446667
vt 0.79115408 0.77179852
vt 0.79115408 0.93713481
vt 0.79115408 0.77179852
vt 0.79115408 0.93713481
vt 0.87382222 0.73755625
vt 0.87382222 0.97137708
vt 0.87382222 0.73755625
vt 0.87382222 0.97137708
vt 0.95649037 0.77179852
vt 0.95649037 0.77179852
vt 0.95649037 0.93713481
vt 0.95649037 0.93713481
vt 0.99073264 0.85446667
vt 0.99073264 0.85446667
vn 0.70710678 0.70710678 -1.4254525e-16
vn -7.9191804e-17 1.00000000 -6.3353443e-17
vn -0.70710678 0.70710678 -1.5838361e-17
vn -1.00000000 -2.0589869e-16 7.9191804e-18
vn -0.70710678 -0.70710678 0.0000000e+0
vn 1.1086853e-16 -1.00000000 1.4254525e-16
vn 0.70710678 -0.70710678 3.1676722e-17
vn 1.00000000 4.7515082e-17 -6.3353443e-17
vn -1.2819078e-15 0.0000000e+0 1.00000000
vn 0.94033239 -5.9573295e-17 0.34025725
vn 0.94033239 -5.9573295e-17 0.34025725
vn -5.9670529e-16 0.0000000e+0 1.00000000
vn 0.66491541 -0.66491541 0.34025725
vn 0.66491541 -0.66491541 0.34025725
vn -5.9670529e-16 0.0000000e+0 1.00000000
vn 0.66491541 -0.66491541 0.34025725
vn 0.66491541 -0.66491541 0.34025725
vn -7.4795942e-17 1.8690623e-16 1.00000000
vn -7.4795942e-17 1.8690623e-16 1.00000000
vn -7.4795942e-17 1.8690623e-16 1.00000000
vn 1.1914659e-16 -0.94033239 0.34025725
vn 1.1914659e-16 -0.94033239 0.34025725
vn -0.66491541 -0.66491541 0.34025725
vn -0.66491541 -0.66491541 0.34025725
vn 3.2806883e-16 9.3453117e-17 1.00000000
vn 3.2806883e-16 9.3453117e-17 1.00000000
vn 3.2806883e-16 9.3453117e-17 1.00000000
vn -0.66491541 -0.66491541 0.34025725
vn -0.66491541 -0.66491541 0.34025725
vn 0.0000000e+0 0.0000000e+0 1.00000000
vn -0.94033239 -2.0850653e-16 0.34025725
vn -0.94033239 -2.0850653e-16 0.34025725
vn -0.66491541 0.66491541 0.34025725
vn -0.66491541 0.66491541 0.34025725
vn 3.9823771e-16 1.5720273e-31 1.00000000
vn 3.9823771e-16 1.5720273e-31 1.00000000
vn -0.66491541 0.66491541 0.34025725
vn -0.66491541 0.66491541 0.34025725
vn 1.6119678e-16 1.8690623e-16 1.00000000
vn 1.6119678e-16 1.8690623e-16 1.00000000
vn 1.6119678e-16 1.8690623e-16 1.00000000
vn -1.1914659e-16 0.94033239 0.34025725
vn -1.1914659e-16 0.94033239 0.34025725
vn -5.6467558e-16 9.3453117e-17 1.00000000
vn 0.66491541 0.66491541 0.34025725
vn 0.66491541 0.66491541 0.34025725
vn -5.6467558e-16 9.3453117e-17 1.00000000
vn -5.6467558e-16 9.3453117e-17 1.00000000
vn 0.66491541 0.66491541 0.34025725
vn 0.66491541 0.66491541 0.34025725
vn 1.7092105e-15 0.0000000e+0 -1.00000000
vn 0.94033239 0.0000000e+0 -0.34025725
vn 0.94033239 0.0000000e+0 -0.34025725
vn 0.66491541 -0.66491541 -0.34025725
vn 0.66491541 -0.66491541 -0.34025725
vn 2.1871255e-16 -9.3453117e-17 -1.00000000
vn 2.1871255e-16 -9.3453117e-17 -1.00000000
vn 2.1871255e-16 -9.3453117e-17 -1.00000000
vn 0.66491541 -0.66491541 -0.34025725
vn 0.66491541 -0.66491541 -0.34025725
vn 1.6267918e-16 -1.8690623e-16 -1.00000000
vn 1.6267918e-16 -1.8690623e-16 -1.00000000
vn 1.6267918e-16 -1.8690623e-16 -1.00000000
vn 8.9359942e-17 -0.94033239 -0.34025725
vn 8.9359942e-17 -0.94033239 -0.34025725
vn -2.3512435e-16 0.0000000e+0 -1.00000000
vn -0.66491541 -0.66491541 -0.34025725
vn -0.66491541 -0.66491541 -0.34025725
vn -2.3512435e-16 0.0000000e+0 -1.00000000
vn -0.66491541 -0.66491541 -0.34025725
vn -0.66491541 -0.66491541 -0.34025725
vn -1.7092105e-15 0.0000000e+0 -1.00000000
vn -0.94033239 -2.0850653e-16 -0.34025725
vn -0.94033239 -2.0850653e-16 -0.34025725
vn -1.1503155e-16 -9.3453117e-17 -1.00000000
vn -0.66491541 0.66491541 -0.34025725
vn -0.66491541 0.66491541 -0.34025725
vn -1.1503155e-16 -9.3453117e-17 -1.00000000
vn -1.1503155e-16 -9.3453117e-17 -1.00000000
vn -0.66491541 0.66491541 -0.34025725
vn -0.66491541 0.66491541 -0.34025725
vn -3.0930626e-16 -1.8690623e-16 -1.00000000
vn -3.0930626e-16 -1.8690623e-16 -1.00000000
vn -3.0930626e-16 -1.8690623e-16 -1.00000000
vn -5.9573295e-17 0.94033239 -0.34025725
vn -5.9573295e-17 0.94033239 -0.34025725
vn 0.66491541 0.66491541 -0.34025725
vn 0.66491541 0.66491541 -0.34025725
vn 7.6610796e-16 0.0000000e+0 -1.00000000
vn 7.6610796e-16 0.0000000e+0 -1.00000000
vn 0.66491541 0.66491541 -0.34025725
vn 0.66491541 0.66491541 -0.34025725
g roue_av_g_caisse_auv
usemtl caisse_auv
s 1
f 1/43/9 8/41/44 2/39/12
f 2/39/15 8/41/48 3/36/19
f 3/36/20 7/37/41 4/32/26
f 4/32/27 6/33/36 5/29/30
f 6/33/35 4/32/25 7/37/40
f 7/37/39 3/36/18 8/41/47
f 10/30/58 16/31/90 9/28/51
f 11/34/61 15/35/82 10/30/56
f 12/38/69 14/40/78 11/34/62
f 13/42/72 14/40/75 12/38/66
f 15/35/84 11/34/63 14/40/79
f 16/31/89 10/30/57 15/35/83
s 2
f 1/7/10 24/8/8 8/12/49
f 2/6/13 22/2/6 23/5/7
f 2/6/17 24/8/8 1/7/11
f 3/3/22 22/2/6 2/6/16
f 4/24/23 20/20/4 21/23/5
f 4/24/28 22/26/6 3/27/21
f 5/21/32 20/20/4 4/24/29
f 6/18/33 18/14/2 19/17/3
f 6/18/37 20/20/4 5/21/31
f 7/15/42 18/14/2 6/18/38
f 8/12/50 18/14/2 7/15/43
f 8/12/45 24/8/8 17/11/1
f 9/9/53 24/8/8 10/4/60
f 10/4/59 22/2/6 11/1/65
f 10/4/55 24/8/8 23/5/7
f 11/25/64 22/26/6 12/22/71
f 12/22/70 20/20/4 13/19/74
f 12/22/68 22/26/6 21/23/5
f 13/19/73 20/20/4 14/16/81
f 14/16/80 18/14/2 15/13/86
f 14/16/77 20/20/4 19/17/3
f 15/13/85 18/14/2 16/10/92
f 16/10/88 18/14/2 17/11/1
f 16/10/91 24/8/8 9/9/52
f 17/11/1 18/14/2 8/12/46
f 17/11/1 24/8/8 16/10/87
f 19/17/3 18/14/2 14/16/76
f 19/17/3 20/20/4 6/18/34
f 21/23/5 20/20/4 12/22/67
f 21/23/5 22/26/6 4/24/24
f 23/5/7 22/2/6 10/4/54
f 23/5/7 24/8/8 2/6/14
