# Exported from Wings 3D 1.5.3
mtllib ./shield.mtl
o shield
#42 vertices, 80 faces
v -1.24705409 -0.16902043 -0.48496775
v -1.46600000 0.28859893 -7.9775315e-2
v -1.24705409 0.74621829 0.32541712
v -1.18601891 -0.24936489 0.30558559
v -1.18601891 0.28859893 -0.94146849
v -1.18601891 0.28859893 0.78191786
v -1.18601891 0.82656276 -0.46513622
v -0.77072181 -0.16902043 0.98103225
v -0.77072181 0.74621829 -1.14058288
v -0.73300000 -0.58184482 -0.31794145
v -0.73300000 -0.24936489 -1.08866326
v -0.73300000 0.82656276 0.92911263
v -0.73300000 1.15904268 0.15839082
v -0.45301891 -0.58184482 0.54375173
v -0.45301891 0.28859893 -1.47402417
v -0.45301891 0.28859893 1.31447354
v -0.45301891 1.15904268 -0.70330236
v -1.1086370e-17 -0.73466907 -7.9775315e-2
v -1.1086370e-17 -0.58184482 -0.85049713
v -1.1086370e-17 -0.16902043 -1.39100558
v -1.1086370e-17 -0.24936489 1.16727877
v -1.1086370e-17 0.82656276 -1.32682940
v -1.1086370e-17 0.74621829 1.23145495
v -1.1086370e-17 1.15904268 0.69094650
v -1.1086370e-17 1.31186693 -7.9775315e-2
v 0.45301891 -0.58184482 0.54375173
v 0.45301891 0.28859893 -1.47402417
v 0.45301891 0.28859893 1.31447354
v 0.45301891 1.15904268 -0.70330236
v 0.73300000 -0.58184482 -0.31794145
v 0.73300000 -0.24936489 -1.08866326
v 0.73300000 0.82656276 0.92911263
v 0.73300000 1.15904268 0.15839082
v 0.77072181 -0.16902043 0.98103225
v 0.77072181 0.74621829 -1.14058288
v 1.18601891 -0.24936489 0.30558559
v 1.18601891 0.28859893 -0.94146849
v 1.18601891 0.28859893 0.78191786
v 1.18601891 0.82656276 -0.46513622
v 1.24705409 -0.16902043 -0.48496775
v 1.46600000 0.28859893 -7.9775315e-2
v 1.24705409 0.74621829 0.32541712
vt 5.8127546e-3 0.50000000
vt 5.8127546e-3 0.50000000
vt 7.9619220e-2 0.63659000
vt 7.9619220e-2 0.36341000
vt 0.10019412 0.20952403
vt 0.10019412 0.37009519
vt 0.10019412 0.20952403
vt 0.10019412 0.62990481
vt 0.10019412 0.79047597
vt 0.10019412 0.79047597
vt 0.24019039 0.14240275
vt 0.24019039 0.85759725
vt 0.25290638 0.15990481
vt 0.25290638 0.58028558
vt 0.25290638 0.84009519
vt 0.25290638 0.41971442
vt 0.34728774 3.0000000e-2
vt 0.34728774 3.0000000e-2
vt 0.34728774 0.28980961
vt 0.34728774 0.97000000
vt 0.34728774 0.71019039
vt 0.34728774 0.97000000
vt 0.50000000 5.7985490e-2
vt 0.50000000 7.9619220e-2
vt 0.50000000 0.50000000
vt 0.50000000 0.75980961
vt 0.50000000 0.94201451
vt 0.50000000 0.24019039
vt 0.50000000 0.50000000
vt 0.50000000 0.92038078
vt 0.65271226 3.0000000e-2
vt 0.65271226 0.28980961
vt 0.65271226 0.97000000
vt 0.65271226 3.0000000e-2
vt 0.65271226 0.71019039
vt 0.65271226 0.97000000
vt 0.74709362 0.15990481
vt 0.74709362 0.58028558
vt 0.74709362 0.84009519
vt 0.74709362 0.41971442
vt 0.75980961 0.14240275
vt 0.75980961 0.85759725
vt 0.89980588 0.20952403
vt 0.89980588 0.20952403
vt 0.89980588 0.37009519
vt 0.89980588 0.79047597
vt 0.89980588 0.62990481
vt 0.89980588 0.79047597
vt 0.92038078 0.63659000
vt 0.92038078 0.36341000
vt 0.99418725 0.50000000
vt 0.99418725 0.50000000
vn -0.78513106 -0.56434996 -0.25510455
vn -1.00000000 -1.3136549e-16 3.0315112e-17
vn -0.78513106 0.56434996 0.25510455
vn -0.72882277 -0.64244760 0.23680887
vn -0.80901699 -1.2126045e-16 -0.58778525
vn -0.80901699 -1.0105037e-16 0.58778525
vn -0.72882277 0.64244760 -0.23680887
vn -0.48523768 -0.56434996 0.66787237
vn -0.48523768 0.56434996 -0.66787237
vn -0.38622099 -0.91383007 -0.12549081
vn -0.45043724 -0.64244760 -0.61997368
vn -0.45043724 0.64244760 0.61997368
vn -0.38622099 0.91383007 0.12549081
vn -0.23869770 -0.91383007 0.32853920
vn -0.30901699 2.0210075e-17 -0.95105652
vn -0.30901699 -1.2126045e-16 0.95105652
vn -0.23869770 0.91383007 -0.32853920
vn 5.7154176e-18 -1.00000000 -5.7154176e-17
vn 0.0000000e+0 -0.91383007 -0.40609679
vn -1.1849839e-17 -0.56434996 -0.82553566
vn 9.8747604e-18 -0.64244760 0.76632961
vn 9.8747604e-17 0.64244760 -0.76632961
vn 1.1849839e-17 0.56434996 0.82553566
vn -9.6148916e-18 0.91383007 0.40609679
vn -5.7154176e-18 1.00000000 -2.8577088e-18
vn 0.23869770 -0.91383007 0.32853920
vn 0.30901699 1.0105037e-17 -0.95105652
vn 0.30901699 -1.2126045e-16 0.95105652
vn 0.23869770 0.91383007 -0.32853920
vn 0.38622099 -0.91383007 -0.12549081
vn 0.45043724 -0.64244760 -0.61997368
vn 0.45043724 0.64244760 0.61997368
vn 0.38622099 0.91383007 0.12549081
vn 0.48523768 -0.56434996 0.66787237
vn 0.48523768 0.56434996 -0.66787237
vn 0.72882277 -0.64244760 0.23680887
vn 0.80901699 -5.0525187e-17 -0.58778525
vn 0.80901699 -1.9199571e-16 0.58778525
vn 0.72882277 0.64244760 -0.23680887
vn 0.78513106 -0.56434996 -0.25510455
vn 1.00000000 -9.0945337e-17 4.0420150e-17
vn 0.78513106 0.56434996 0.25510455
g shield_shield_auv
usemtl shield_auv
s 1
f 1/49/1 4/45/4 2/51/2
f 1/49/1 10/38/10 4/45/4
f 1/49/1 11/39/11 10/38/10
f 2/51/2 5/46/5 1/49/1
f 2/2/2 6/7/6 3/4/3
f 2/2/2 7/8/7 5/10/5
f 3/4/3 7/8/7 2/2/2
f 3/4/3 13/16/13 7/8/7
f 4/45/4 6/44/6 2/51/2
f 4/45/4 8/41/8 6/44/6
f 4/45/4 14/32/14 8/41/8
f 5/46/5 11/39/11 1/49/1
f 5/46/5 15/33/15 11/39/11
f 6/7/6 12/13/12 3/4/3
f 6/7/6 16/18/16 12/13/12
f 7/8/7 9/12/9 5/10/5
f 7/8/7 17/21/17 9/12/9
f 8/41/8 16/31/16 6/44/6
f 8/41/8 21/24/21 16/31/16
f 9/12/9 15/22/15 5/10/5
f 9/12/9 22/30/22 15/22/15
f 10/38/10 14/32/14 4/45/4
f 10/38/10 18/25/18 14/32/14
f 10/38/10 19/26/19 18/25/18
f 11/39/11 19/26/19 10/38/10
f 11/39/11 20/27/20 19/26/19
f 12/13/12 13/16/13 3/4/3
f 12/13/12 24/28/24 13/16/13
f 13/16/13 17/21/17 7/8/7
f 13/16/13 25/29/25 17/21/17
f 14/32/14 21/24/21 8/41/8
f 14/32/14 26/19/26 21/24/21
f 15/33/15 20/27/20 11/39/11
f 15/33/15 27/20/27 20/27/20
f 16/18/16 23/23/23 12/13/12
f 16/18/16 28/34/28 23/23/23
f 17/21/17 22/30/22 9/12/9
f 17/21/17 29/35/29 22/30/22
f 18/25/18 26/19/26 14/32/14
f 18/25/18 30/14/30 26/19/26
f 19/26/19 30/14/30 18/25/18
f 19/26/19 31/15/31 30/14/30
f 20/27/20 31/15/31 19/26/19
f 21/24/21 28/17/28 16/31/16
f 21/24/21 34/11/34 28/17/28
f 22/30/22 27/36/27 15/22/15
f 22/30/22 35/42/35 27/36/27
f 23/23/23 24/28/24 12/13/12
f 23/23/23 32/37/32 24/28/24
f 24/28/24 25/29/25 13/16/13
f 24/28/24 33/40/33 25/29/25
f 25/29/25 29/35/29 17/21/17
f 25/29/25 33/40/33 29/35/29
f 26/19/26 34/11/34 21/24/21
f 26/19/26 36/6/36 34/11/34
f 27/20/27 31/15/31 20/27/20
f 27/20/27 37/9/37 31/15/31
f 28/34/28 32/37/32 23/23/23
f 28/34/28 38/43/38 32/37/32
f 29/35/29 35/42/35 22/30/22
f 29/35/29 39/47/39 35/42/35
f 30/14/30 36/6/36 26/19/26
f 30/14/30 40/3/40 36/6/36
f 31/15/31 40/3/40 30/14/30
f 32/37/32 33/40/33 24/28/24
f 32/37/32 42/50/42 33/40/33
f 33/40/33 39/47/39 29/35/29
f 33/40/33 42/50/42 39/47/39
f 34/11/34 38/5/38 28/17/28
f 35/42/35 37/48/37 27/36/27
f 35/42/35 39/47/39 37/48/37
f 36/6/36 38/5/38 34/11/34
f 36/6/36 41/1/41 38/5/38
f 37/9/37 40/3/40 31/15/31
f 37/9/37 41/1/41 40/3/40
f 38/43/38 42/50/42 32/37/32
f 39/47/39 41/52/41 37/48/37
f 39/47/39 42/50/42 41/52/41
f 40/3/40 41/1/41 36/6/36
f 41/52/41 42/50/42 38/43/38
